<?xml version="1.0" standalone="no"?>
<!DOCTYPE svg PUBLIC "-//W3C//DTD SVG 20010904//EN"
 "http://www.w3.org/TR/2001/REC-SVG-20010904/DTD/svg10.dtd">
<svg version="1.0" xmlns="http://www.w3.org/2000/svg"
 width="16.000000pt" height="16.000000pt" viewBox="0 0 16.000000 16.000000"
 preserveAspectRatio="xMidYMid meet">
<metadata>
Created by potrace 1.11, written by Peter Selinger 2001-2013
</metadata>
<g transform="translate(0.000000,16.000000) scale(0.003125,-0.003125)"
fill="#000000" stroke="none">
<path d="M2415 4884 c-297 -31 -580 -111 -837 -239 -614 -305 -1065 -861
-1233 -1519 -60 -235 -70 -323 -70 -596 1 -268 14 -376 74 -606 102 -389 319
-763 610 -1055 358 -357 807 -585 1316 -666 155 -25 545 -25 700 0 734 118
1350 546 1713 1192 129 231 224 508 269 790 25 155 25 545 0 700 -66 410 -232
794 -473 1097 l-54 67 0 180 0 181 -186 0 -185 0 -127 84 c-216 144 -451 251
-692 315 -213 57 -334 73 -570 76 -118 2 -233 1 -255 -1z m510 -200 c111 -16
287 -58 382 -91 l52 -18 -217 0 c-190 0 -230 -3 -320 -23 -642 -144 -1110
-612 -1254 -1254 -20 -90 -23 -130 -23 -318 0 -188 3 -228 23 -318 112 -498
418 -895 857 -1112 154 -76 241 -107 397 -142 90 -20 130 -23 318 -23 188 0
228 3 318 23 156 35 243 66 397 142 317 156 559 399 715 715 38 77 78 169 90
205 29 88 70 267 70 310 0 21 4 30 9 25 17 -17 24 -282 12 -420 -37 -403 -171
-765 -408 -1095 -88 -123 -340 -375 -463 -463 -860 -617 -2008 -538 -2759 188
-187 181 -310 347 -425 575 -161 318 -230 607 -230 970 0 364 69 653 230 970
113 223 237 391 416 566 365 357 819 562 1348 608 88 8 357 -4 465 -20z m1325
-1459 c0 -876 -2 -1000 -15 -1033 -22 -51 -52 -81 -110 -108 -48 -23 -60 -24
-267 -24 l-216 0 -6 53 c-4 28 -9 69 -12 90 l-6 37 181 0 c192 0 221 6 240 47
7 16 11 123 11 313 l0 290 -654 0 -654 0 -16 -69 c-32 -140 -111 -331 -184
-445 -48 -75 -149 -200 -210 -259 -68 -67 -70 -67 -136 2 l-39 40 56 60 c110
120 218 301 276 464 77 220 91 373 91 1025 l0 512 835 0 835 0 0 -995z"/>
<path d="M2780 3860 l0 -210 635 0 635 0 0 210 0 210 -635 0 -635 0 0 -210z"/>
<path d="M2780 3362 c0 -77 -3 -180 -6 -230 l-7 -92 642 0 641 0 0 230 0 230
-635 0 -635 0 0 -138z"/>
</g>
</svg>
